<svg xmlns="http://www.w3.org/2000/svg" viewBox="0 0 64 64" fill="none">
	<defs>
		<linearGradient id="bg" x1="10" y1="8" x2="56" y2="58" gradientUnits="userSpaceOnUse">
			<stop stop-color="#0f172a" />
			<stop offset="1" stop-color="#111827" />
		</linearGradient>
		<linearGradient id="accent" x1="18" y1="14" x2="48" y2="50" gradientUnits="userSpaceOnUse">
			<stop stop-color="#22d3ee" />
			<stop offset="0.5" stop-color="#60a5fa" />
			<stop offset="1" stop-color="#a855f7" />
		</linearGradient>
	</defs>
	<rect x="4" y="4" width="56" height="56" rx="16" fill="url(#bg)" />
	<path
		d="M18 17h22.5c6.3 0 11.5 5.2 11.5 11.5S46.8 40 40.5 40H30.3l-8.2 7.3V40H18c-6.3 0-11-4.7-11-10.6V27.6C7 21.7 11.7 17 18 17Z"
		fill="url(#accent)"
		opacity="0.18"
	/>
	<path
		d="M21 19h18.3c5.3 0 9.7 4.3 9.7 9.7 0 5.3-4.4 9.7-9.7 9.7h-9.1L24 44v-5.6h-3c-5.3 0-9.6-4.1-9.6-9.4v-0.3c0-5.4 4.3-9.7 9.6-9.7Z"
		fill="url(#accent)"
	/>
	<path
		d="M27 24h3.5v16H27V24Zm7 0h3.5v16H34V24Zm-9.5 3.5h12V31h-12v-3.5Z"
		fill="#08111f"
	/>
	<path
		d="M21.5 28.5h21"
		stroke="#e0f2fe"
		stroke-width="2"
		stroke-linecap="round"
		opacity="0.65"
	/>
</svg>